----------------------------------------------------
IMDB Link: http://www.imdb.com/find?s=all&q=lord+of+the+rings+trilogy
----------------------------------------------------


Release Info:
==============
original name .... : The Lord Of The Rings Trilogy BRRip.MP4
ripper.............: WiKi
encoder............: Recalled2Life (R2L)
video codec........: H264/.MP4                   
audio codec........: AAC-LC
aspect ratio.......: 2.40:1
resolution.........: 1280 x 528
genre..............: Action | Adventure | Fantasy          
language...........: English 
MPAA rating........: Rated PG-13 for epic battle sequences and some scary images.
subtitles..........: English | French | Spanish
2ch Audio..........: 2ch Audio for XBox Viewers  
Compatibility .....: XBox 360 | PS3 | WD Live


@@@@@@@@@@@@@@@@@@@@@@@@@@@@@@@@@@@@@@@@@@@@@@@@@@@@@@@@@@@@@@@@@@@@@@@@@@@@@@@@@


General                          : ChattChitto RG - Movies

Complete name                    : The Fellowship Of The Ring 2001 BRRip.mp4
Format                           : MPEG-4
Format profile                   : Base Media
Codec ID                         : isom
File size                        : 2.81 GiB
Duration                         : 2h 58mn
Overall bit rate                 : 2 258 Kbps
Encoded date                     : UTC 2010-04-28 07:38:51

Video
==========
ID                               : 1
Format                           : AVC
Format/Info                      : Advanced Video Codec
Format profile                   : High@L3.1
Format settings, CABAC           : Yes
Format settings, ReFrames        : 3 frames
Codec ID                         : avc1
Codec ID/Info                    : Advanced Video Coding
Duration                         : 2h 58mn
Bit rate mode                    : Variable
Bit rate                         : 2 000 Kbps
Maximum bit rate                 : 13.8 Mbps
Width                            : 1 280 pixels
Height                           : 528 pixels
Display aspect ratio             : 2.40:1
Frame rate mode                  : Constant
Frame rate                       : 23.976 fps
Resolution                       : 8 bits
Colorimetry                      : 4:2:0
Scan type                        : Progressive
Bits/(Pixel*Frame)               : 0.123
Stream size                      : 2.49 GiB (89%)
Writing library                  : x264 core 76 r1271 496d79d
Encoded date                     : UTC 2010-04-28 05:41:41

Audio
==========
ID                               : 2
Format                           : AAC
Format/Info                      : Advanced Audio Codec
Format version                   : Version 4
Format profile                   : LC
Format settings, SBR             : No
Codec ID                         : 40
Duration                         : 2h 58mn
Bit rate mode                    : Variable
Bit rate                         : 255 Kbps
Maximum bit rate                 : 332 Kbps
Channel(s)                       : 2 channels
Channel positions                : Front: L R
Sampling rate                    : 48.0 KHz
Stream size                      : 326 MiB (11%)
Encoded date                     : UTC 2010-04-28 07:41:23

Subtitles                        : English | French | Spanish



----------------------------------------------------
IMDB Link: http://www.imdb.com/title/tt0120737/
----------------------------------------------------


Screen Shots:
==============
http://bayimg.com/IAmiHaaCE
http://bayimg.com/iAMIjAACE
http://bayimg.com/IAmILaaCE



Plot:
======
With the help of a courageous fellowship of friends and allies, Frodo Baggins embarks on a perilous mission to destroy the legendary One Ring. Hunting Frodo are servants of the Dark Lord, Sauron, the Ring's evil creator. If Sauron reclaims the Ring, Middle-Earth is doomed.




Release Info:
==============
original name .... : The Fellowship Of The Ring 2001 BRRip.mp4
ripper.............: WiKi
encoder............: Recalled2Life (R2L)
video codec........: H264/.MP4                   
video bitrate......: 2000 Kbps                           
audio codec........: AAC-LC	                                        
aspect ratio.......: 2.40:1                              
resolution.........: 1280 x 528                             
genre..............: Action | Adventure | Fantasy         
runtime............: 2h 58mn
language...........: English 
MPAA rating........: Rated PG-13 for epic battle sequences and some scary images.
subtitles..........: English | French | Spanish
sample.............: Yes [7.25 MB]
2ch Audio..........: 2ch Audio for XBox Viewers  
Compatibility .....: XBox 360 | PS3 | WD Live   



Source:
========
The Fellowship of the Ring 2001 1080p BluRay x264 DTS-WiKi [17.4 GB]


Notes:
=======
ChattChitto RG Encourages Burning this Film with ConvertXtoDVD.
XBox 360 | PS3 | WD Live - Compatibile
Enhanced and Filtered for your viewing pleasure ;)


++++++++++++++++++++++++++++++++++++++++++++++++++++++++++++++++++++++++++++++++


General                          : ChattChitto RG - Movies

Complete name                    : The Two Towers 2002 BRRip.mp4
Format                           : MPEG-4
Format profile                   : Base Media
Codec ID                         : isom
File size                        : 2.83 GiB
Duration                         : 2h 59mn
Overall bit rate                 : 2 256 Kbps
Encoded date                     : UTC 2010-04-29 11:56:55

Video
==========
ID                               : 1
Format                           : AVC
Format/Info                      : Advanced Video Codec
Format profile                   : High@L3.1
Format settings, CABAC           : Yes
Format settings, ReFrames        : 3 frames
Codec ID                         : avc1
Codec ID/Info                    : Advanced Video Coding
Duration                         : 2h 59mn
Bit rate mode                    : Variable
Bit rate                         : 2 000 Kbps
Maximum bit rate                 : 10.9 Mbps
Width                            : 1 280 pixels
Height                           : 528 pixels
Display aspect ratio             : 2.40:1
Frame rate mode                  : Constant
Frame rate                       : 23.976 fps
Resolution                       : 8 bits
Colorimetry                      : 4:2:0
Scan type                        : Progressive
Bits/(Pixel*Frame)               : 0.123
Stream size                      : 2.51 GiB (89%)
Writing library                  : x264 core 76 r1271 496d79d
Encoded date                     : UTC 2010-04-29 09:35:22

Audio
==========
ID                               : 2
Format                           : AAC
Format/Info                      : Advanced Audio Codec
Format version                   : Version 4
Format profile                   : LC
Format settings, SBR             : No
Codec ID                         : 40
Duration                         : 2h 59mn
Bit rate mode                    : Variable
Bit rate                         : 253 Kbps
Maximum bit rate                 : 356 Kbps
Channel(s)                       : 6 channels
Channel positions                : Front: L C R, Side: L R, LFE
Sampling rate                    : 48.0 KHz
Stream size                      : 325 MiB (11%)
Encoded date                     : UTC 2010-04-29 11:58:33

Subtitles                        : English | French | Spanish




----------------------------------------------------
IMDB Link: http://www.imdb.com/title/tt0167261/
----------------------------------------------------


Screen Shots:
==============
http://bayimg.com/PAmIOAace
http://bayimg.com/AAMjCAacE
http://bayimg.com/AamjFaAcE



Plot:
======
The Fellowship has divided; they now find themselves taking different paths to defeating Sauron and his allies. Their destinies now lie at two towers — Orthanc Tower in Isengard, where the corrupted wizard Saruman waits, and Sauron's fortress at Barad-dur, deep within the dark lands of Mordor. Based on the novel The Two Towers, the second in The Lord of the Rings trilogy by J.R.R. Tolkien.




Release Info:
==============
original name .... : The Two Towers 2002 BRRip.mp4                               
ripper.............: WiKi
encoder............: Recalled2Life (R2L)
video codec........: H264/.MP4                   
video bitrate......: 2000 Kbps                           
audio codec........: AAC-LC	                                        
aspect ratio.......: 2.40:1                              
resolution.........: 1280 x 528                             
genre..............: Action | Adventure | Fantasy           
runtime............: 2h 59mn
language...........: English
MPAA rating........: Rated PG-13 for epic battle sequences and some scary images.
subtitles..........: English | French | Spanish
sample.............: Yes [8.44 MB]
2ch Audio..........: 2ch Audio for XBox Viewers  
Compatibility .....: XBox 360 | PS3 | WD Live   



Source:
========
The Two Towers 1080p BluRay x264 DTS-WiKi [17.5 GB]


Notes:
=======
ChattChitto RG Encourages Burning this Film with ConvertXtoDVD.
XBox 360 | PS3 | WD Live - Compatibile
Enhanced and Filtered for your viewing pleasure ;)


+++++++++++++++++++++++++++++++++++++++++++++++++++++++++++++++++++++++++++++++++


General                          : ChattChitto RG - Movies

Complete name                    : The Return Of The King 2003 BRRip.mp4
Format                           : MPEG-4
Format profile                   : Base Media
Codec ID                         : isom
File size                        : 3.17 GiB
Duration                         : 3h 21mn
Overall bit rate                 : 2 257 Kbps
Encoded date                     : UTC 2010-04-30 18:02:29

Video
==========
ID                               : 1
Format                           : AVC
Format/Info                      : Advanced Video Codec
Format profile                   : High@L3.1
Format settings, CABAC           : Yes
Format settings, ReFrames        : 3 frames
Codec ID                         : avc1
Codec ID/Info                    : Advanced Video Coding
Duration                         : 3h 21mn
Bit rate mode                    : Variable
Bit rate                         : 2 000 Kbps
Maximum bit rate                 : 10.7 Mbps
Width                            : 1 280 pixels
Height                           : 528 pixels
Display aspect ratio             : 2.40:1
Frame rate mode                  : Constant
Frame rate                       : 23.976 fps
Resolution                       : 8 bits
Colorimetry                      : 4:2:0
Scan type                        : Progressive
Bits/(Pixel*Frame)               : 0.123
Stream size                      : 2.81 GiB (89%)
Writing library                  : x264 core 76 r1271 496d79d
Encoded date                     : UTC 2010-04-30 17:53:07

Audio
==========
ID                               : 2
Format                           : AAC
Format/Info                      : Advanced Audio Codec
Format version                   : Version 4
Format profile                   : LC
Format settings, SBR             : No
Codec ID                         : 40
Duration                         : 3h 21mn
Bit rate mode                    : Variable
Bit rate                         : 254 Kbps
Maximum bit rate                 : 369 Kbps
Channel(s)                       : 6 channels
Channel positions                : Front: L C R, Side: L R, LFE
Sampling rate                    : 48.0 KHz
Stream size                      : 365 MiB (11%)
Encoded date                     : UTC 2010-04-30 18:04:08

Subtitles                        : English | French | Spanish




----------------------------------------------------
IMDB Link: http://www.imdb.com/title/tt0167260/
----------------------------------------------------


Screen Shots:
==============
http://bayimg.com/OAMigAacE
http://bayimg.com/OAMiHAACE
http://bayimg.com/oaMiiaACE



Plot:
======
The final battle for Middle-earth begins. Frodo and Sam, led by Gollum, continue their dangerous mission toward the fires of Mount Doom in order to destroy the One Ring. Aragorn struggles to fulfill his legacy as he leads his outnumbered followers against the growing power of the Dark Lord Sauron, so that the Ring-bearer may complete his quest.




Release Info:
==============
original name .... : The Return Of The King 2003 BRRip.mp4
ripper.............: WiKi
encoder............: Recalled2Life (R2L)
video codec........: H264/.MP4                   
video bitrate......: 2000 Kbps                           
audio codec........: AAC-LC	                                        
aspect ratio.......: 2.40:1                              
resolution.........: 1280 x 528                             
genre..............: Action | Adventure | Fantasy                
runtime............: 3h 21mn
language...........: English 
MPAA rating........: Rated PG-13 for epic battle sequences and some scary images.
subtitles..........: English | French | Spanish
sample.............: Yes [13.8 MB]
2ch Audio..........: 2ch Audio for XBox Viewers  
Compatibility .....: XBox 360 | PS3 | WD Live    



Source:
========
The Return Of The King 1080p BluRay x264 DTS-WiKi [17.5 GB]


Notes:
=======
ChattChitto RG Encourages Burning this Film with ConvertXtoDVD.
XBox 360 | PS3 | WD Live - Compatibile
Enhanced and Filtered for your viewing pleasure ;)